<svg width="135" height="77" viewBox="0 0 135 77" fill="none" xmlns="http://www.w3.org/2000/svg">
<path d="M48.1641 43.5156L47.2031 49H29.5547L30.4922 43.5156H48.1641ZM37.7344 14.875L31.8047 49H24.9375L30.8438 14.875H37.7344ZM48.4219 28.7734L47.4844 34.1172H32.1328L33.0703 28.7734H48.4219ZM53.0859 14.875L52.125 20.3828H34.5L35.4844 14.875H53.0859ZM57.0469 14.875L69.0703 14.8984C71.1484 14.9297 73.0312 15.3125 74.7188 16.0469C76.4219 16.7812 77.7422 17.8828 78.6797 19.3516C79.6328 20.8203 80.0312 22.6875 79.875 24.9531C79.7188 26.8125 79.2656 28.3828 78.5156 29.6641C77.7812 30.9453 76.7891 32.0312 75.5391 32.9219C74.3047 33.8125 72.8828 34.5781 71.2734 35.2188L68.8828 36.3672H57.7734L58.7109 30.8828L66.3516 30.9297C67.4922 30.9141 68.5312 30.6953 69.4688 30.2734C70.4062 29.8516 71.1797 29.2422 71.7891 28.4453C72.4141 27.6328 72.8047 26.6484 72.9609 25.4922C73.1016 24.4766 73.0312 23.5938 72.75 22.8438C72.4844 22.0938 72.0234 21.5078 71.3672 21.0859C70.7109 20.6641 69.875 20.4375 68.8594 20.4062L62.9766 20.3828L58.0078 49H51.1406L57.0469 14.875ZM69.8203 49L64.8984 33.7891L71.8125 33.7422L77.1328 48.625V49H69.8203ZM96.3984 36.8594L87.5625 36.8359L88.5234 31.3516L96.6328 31.375C97.7891 31.375 98.8516 31.1719 99.8203 30.7656C100.789 30.3438 101.586 29.7344 102.211 28.9375C102.836 28.1406 103.234 27.1406 103.406 25.9375C103.562 24.9219 103.508 24.0078 103.242 23.1953C102.977 22.3828 102.508 21.7266 101.836 21.2266C101.164 20.7266 100.297 20.4531 99.2344 20.4062L92.8359 20.3828L87.8672 49H81L86.9062 14.875L99.4453 14.8984C101.617 14.9453 103.555 15.4141 105.258 16.3047C106.961 17.1797 108.273 18.4297 109.195 20.0547C110.133 21.6641 110.508 23.6094 110.32 25.8906C110.117 28.375 109.344 30.4297 108 32.0547C106.656 33.6797 104.961 34.8906 102.914 35.6875C100.883 36.4688 98.7109 36.8594 96.3984 36.8594Z" fill="url(#paint0_linear_1_10)"/>
<path d="M57.8125 56.3408C57.9115 55.7471 57.763 55.2894 57.3672 54.9678C56.9714 54.6338 56.4827 54.3802 55.9014 54.207C55.3324 54.0339 54.8376 53.8978 54.417 53.7988C53.6748 53.6009 52.9264 53.3535 52.1719 53.0566C51.4297 52.7474 50.7555 52.3639 50.1494 51.9062C49.5433 51.4486 49.0609 50.8919 48.7021 50.2363C48.3434 49.5684 48.1826 48.7829 48.2197 47.8799C48.2568 46.8037 48.529 45.8698 49.0361 45.0781C49.5557 44.2741 50.2236 43.6123 51.04 43.0928C51.8564 42.5609 52.7471 42.165 53.7119 41.9053C54.6768 41.6455 55.6354 41.528 56.5879 41.5527C57.9238 41.5651 59.1608 41.8125 60.2988 42.2949C61.4492 42.7773 62.377 43.4948 63.082 44.4473C63.7995 45.3997 64.1582 46.5872 64.1582 48.0098L58.9814 47.9912C58.9938 47.4469 58.9072 46.9707 58.7217 46.5625C58.5361 46.1543 58.2516 45.8389 57.8682 45.6162C57.4847 45.3936 56.9961 45.2822 56.4023 45.2822C55.9323 45.2822 55.4622 45.375 54.9922 45.5605C54.5345 45.7337 54.1387 45.9935 53.8047 46.3398C53.4707 46.6862 53.2604 47.113 53.1738 47.6201C53.0996 48.0407 53.1615 48.387 53.3594 48.6592C53.5573 48.9313 53.8232 49.154 54.1572 49.3271C54.4912 49.488 54.8438 49.624 55.2148 49.7354C55.5859 49.8343 55.9199 49.9147 56.2168 49.9766C57.3053 50.2611 58.3691 50.626 59.4082 51.0713C60.4473 51.5166 61.2946 52.1413 61.9502 52.9453C62.6058 53.737 62.9089 54.7946 62.8594 56.1182C62.8223 57.2438 62.5254 58.2087 61.9688 59.0127C61.4121 59.8044 60.6947 60.4538 59.8164 60.9609C58.9505 61.4557 58.0104 61.8145 56.9961 62.0371C55.9941 62.2721 55.0107 62.3835 54.0459 62.3711C52.6976 62.3464 51.4297 62.0742 50.2422 61.5547C49.0671 61.0352 48.1146 60.2806 47.3848 59.291C46.6549 58.2891 46.2839 57.0645 46.2715 55.6172L51.1699 55.6357C51.1823 56.279 51.3122 56.8232 51.5596 57.2686C51.807 57.7139 52.1595 58.054 52.6172 58.2891C53.0872 58.5117 53.6439 58.623 54.2871 58.623C54.7943 58.6354 55.2952 58.5674 55.79 58.4189C56.2972 58.2705 56.7363 58.0293 57.1074 57.6953C57.4785 57.349 57.7135 56.8975 57.8125 56.3408ZM66.0508 52.2773L66.1064 51.8877C66.2549 50.4652 66.5951 49.1292 67.127 47.8799C67.6712 46.6182 68.3887 45.5111 69.2793 44.5586C70.1823 43.5938 71.2399 42.8454 72.4521 42.3135C73.6768 41.7692 75.0498 41.5156 76.5713 41.5527C78.0186 41.5775 79.2679 41.8682 80.3193 42.4248C81.3708 42.9814 82.2305 43.7298 82.8984 44.6699C83.5788 45.61 84.055 46.6862 84.3271 47.8984C84.6117 49.1107 84.6921 50.391 84.5684 51.7393L84.5312 52.1475C84.3704 53.5576 84.0117 54.8874 83.4551 56.1367C82.9108 57.3737 82.1872 58.4684 81.2842 59.4209C80.3936 60.361 79.3359 61.097 78.1113 61.6289C76.8867 62.1608 75.526 62.4082 74.0293 62.3711C72.6068 62.3464 71.3636 62.0618 70.2998 61.5176C69.236 60.9609 68.3701 60.2188 67.7021 59.291C67.0342 58.3509 66.5641 57.2809 66.292 56.0811C66.0199 54.8812 65.9395 53.6133 66.0508 52.2773ZM71.3203 51.8877L71.2832 52.2959C71.2214 52.8896 71.2028 53.5267 71.2275 54.207C71.2523 54.875 71.3574 55.512 71.543 56.1182C71.7409 56.7243 72.0625 57.2191 72.5078 57.6025C72.9531 57.986 73.5654 58.1901 74.3447 58.2148C75.1735 58.2396 75.8848 58.0726 76.4785 57.7139C77.0723 57.3551 77.5609 56.8727 77.9443 56.2666C78.3278 55.6481 78.6309 54.9801 78.8535 54.2627C79.0762 53.5329 79.2246 52.8216 79.2988 52.1289L79.3359 51.7393C79.3854 51.1455 79.3978 50.5085 79.373 49.8281C79.3607 49.1354 79.2555 48.486 79.0576 47.8799C78.8597 47.2614 78.5381 46.7542 78.0928 46.3584C77.6475 45.9626 77.0352 45.7523 76.2559 45.7275C75.4271 45.6904 74.7158 45.8636 74.1221 46.2471C73.5283 46.6182 73.0397 47.113 72.6562 47.7314C72.2728 48.3499 71.9697 49.0241 71.7471 49.7539C71.5368 50.4837 71.3945 51.195 71.3203 51.8877ZM96.4062 33.5L91.4707 62H86.2383L91.1738 33.5H96.4062ZM107.075 57.4727L108.485 48.4736C108.547 47.9294 108.522 47.4222 108.411 46.9521C108.3 46.4821 108.071 46.111 107.725 45.8389C107.391 45.5544 106.914 45.3997 106.296 45.375C105.739 45.3626 105.238 45.4616 104.793 45.6719C104.36 45.8698 104.001 46.1605 103.717 46.5439C103.432 46.915 103.234 47.3604 103.123 47.8799L97.8906 47.917C97.9525 46.8037 98.2617 45.8451 98.8184 45.041C99.3874 44.2246 100.105 43.5566 100.971 43.0371C101.837 42.5176 102.777 42.1341 103.791 41.8867C104.818 41.6393 105.82 41.528 106.797 41.5527C108.195 41.5775 109.438 41.8682 110.526 42.4248C111.627 42.9814 112.468 43.7793 113.05 44.8184C113.644 45.8451 113.866 47.0944 113.718 48.5664L112.326 57.1758C112.215 57.8932 112.128 58.6478 112.066 59.4395C112.005 60.2188 112.116 60.9609 112.4 61.666L112.363 62L107.242 62.0186C107.007 61.2887 106.89 60.5404 106.89 59.7734C106.902 58.9941 106.964 58.2272 107.075 57.4727ZM109.079 49.7725L108.578 52.7969L105.925 52.7783C105.393 52.7907 104.861 52.8649 104.329 53.001C103.81 53.1247 103.327 53.3226 102.882 53.5947C102.437 53.8545 102.065 54.1947 101.769 54.6152C101.484 55.0358 101.305 55.5492 101.23 56.1553C101.169 56.5882 101.212 56.9779 101.36 57.3242C101.509 57.6582 101.738 57.9242 102.047 58.1221C102.368 58.32 102.752 58.4251 103.197 58.4375C103.828 58.4499 104.447 58.3324 105.053 58.085C105.659 57.8252 106.185 57.4603 106.63 56.9902C107.075 56.5202 107.384 55.9759 107.558 55.3574L108.671 57.6768C108.374 58.3695 107.997 59.0065 107.539 59.5879C107.094 60.1693 106.58 60.6764 105.999 61.1094C105.418 61.5299 104.781 61.8516 104.088 62.0742C103.395 62.3092 102.653 62.4206 101.861 62.4082C100.76 62.3835 99.7461 62.1237 98.8184 61.6289C97.903 61.1217 97.1732 60.4352 96.6289 59.5693C96.097 58.6911 95.8558 57.6706 95.9053 56.5078C95.9548 55.1966 96.2826 54.1081 96.8887 53.2422C97.4948 52.3639 98.2741 51.6712 99.2266 51.1641C100.191 50.6569 101.237 50.2982 102.362 50.0879C103.5 49.8652 104.626 49.7539 105.739 49.7539L109.079 49.7725ZM123.348 46.5811L120.676 62H115.462L118.95 41.9238H123.849L123.348 46.5811ZM129.897 41.7568L129.248 46.748C128.951 46.6986 128.648 46.6553 128.339 46.6182C128.042 46.5811 127.739 46.5563 127.43 46.5439C126.712 46.5316 126.063 46.6243 125.481 46.8223C124.9 47.0202 124.393 47.3109 123.96 47.6943C123.539 48.0654 123.181 48.5231 122.884 49.0674C122.599 49.6117 122.383 50.224 122.234 50.9043L121.214 50.5703C121.338 49.6178 121.542 48.6159 121.826 47.5645C122.123 46.5007 122.531 45.5111 123.051 44.5957C123.583 43.668 124.257 42.9196 125.073 42.3506C125.902 41.7692 126.91 41.4847 128.098 41.4971C128.407 41.4971 128.704 41.5218 128.988 41.5713C129.285 41.6208 129.588 41.6826 129.897 41.7568Z" fill="black"/>
<defs>
<linearGradient id="paint0_linear_1_10" x1="67.5" y1="-4.26076e-08" x2="67.1558" y2="38.355" gradientUnits="userSpaceOnUse">
<stop stop-color="#FF0000"/>
<stop offset="1" stop-color="#FF9900"/>
</linearGradient>
</defs>
</svg>
